<?xml version="1.0" standalone="no"?>
<!DOCTYPE svg PUBLIC "-//W3C//DTD SVG 20010904//EN"
 "http://www.w3.org/TR/2001/REC-SVG-20010904/DTD/svg10.dtd">
<svg version="1.0" xmlns="http://www.w3.org/2000/svg"
 width="260.000000pt" height="260.000000pt" viewBox="0 0 260.000000 260.000000"
 preserveAspectRatio="xMidYMid meet">
<metadata>
Created by potrace 1.11, written by Peter Selinger 2001-2013
</metadata>
<g transform="translate(0.000000,260.000000) scale(0.100000,-0.100000)"
fill="#000000" stroke="none">
<path d="M680 2193 c-183 -11 -294 -46 -330 -105 -42 -67 -50 -123 -53 -354
-3 -204 -5 -224 -26 -267 -35 -72 -84 -94 -222 -100 l-47 -2 2 -65 1 -65 65
-3 c84 -4 129 -16 162 -45 54 -47 61 -82 64 -321 5 -374 36 -421 294 -452 49
-6 113 -8 148 -5 8 1 12 22 12 69 l0 68 -73 0 c-47 0 -91 7 -121 18 -73 28
-79 50 -82 281 -2 105 -5 213 -8 241 -11 100 -52 160 -133 196 -24 10 -43 22
-43 25 0 4 3 4 6 0 11 -11 101 41 122 70 34 49 50 113 51 218 6 334 7 350 25
387 9 20 29 41 44 47 35 15 115 27 170 26 l42 -1 0 67 c0 74 -1 75 -70 72z"/>
<path d="M1854 2191 c-2 -2 -4 -34 -4 -70 l0 -66 72 -2 c74 -1 143 -18 165
-39 31 -29 40 -93 42 -280 1 -104 4 -209 7 -234 12 -91 52 -147 129 -181 l48
-21 -35 -13 c-83 -28 -129 -90 -142 -190 -3 -27 -7 -129 -8 -225 -1 -96 -6
-194 -10 -217 -16 -79 -64 -103 -208 -108 l-55 -1 0 -69 0 -69 55 3 c231 11
309 40 355 131 14 27 25 51 24 52 0 2 2 23 6 48 3 25 8 133 10 240 1 107 8
210 14 229 29 91 79 117 241 124 l35 2 0 65 0 65 -36 1 c-143 5 -199 29 -231
102 -18 41 -21 71 -24 252 -4 234 -14 309 -52 364 -29 43 -93 80 -154 90 -100
16 -235 26 -244 17z"/>
<path d="M1182 2104 c-92 -43 -141 -121 -137 -219 5 -123 102 -216 224 -217
65 0 75 2 116 25 46 26 72 51 95 93 30 52 34 147 10 201 -50 113 -199 169
-308 117z m139 -55 c40 -10 108 -77 110 -107 0 -9 2 -28 5 -41 15 -83 -93
-181 -183 -165 -80 15 -151 98 -139 164 2 14 5 33 5 42 1 28 70 97 105 106 42
11 55 11 97 1z"/>
<path d="M1100 1601 c-165 -52 -262 -184 -256 -347 6 -151 132 -289 288 -313
66 -11 113 3 142 42 19 26 21 42 21 176 0 164 -7 187 -51 171 -16 -6 -24 -6
-24 1 0 11 60 92 73 97 20 9 -2 62 -26 62 -17 0 -90 -84 -108 -125 -16 -35
-16 -43 -3 -73 8 -19 27 -49 42 -67 27 -30 29 -37 27 -115 -2 -95 -12 -110
-70 -103 -77 8 -169 68 -201 130 -10 21 -21 40 -24 43 -14 14 -18 100 -7 158
7 40 50 108 86 137 32 26 81 56 81 50 0 -2 11 0 25 5 14 5 97 10 183 11 147 0
162 -1 213 -24 108 -48 162 -128 163 -242 1 -76 -21 -133 -72 -188 -35 -38
-106 -73 -160 -81 -53 -7 -62 -12 -62 -36 0 -69 168 -28 268 64 27 25 71 90
77 116 1 3 6 14 11 25 5 11 9 56 9 100 -1 65 -6 91 -27 136 -31 68 -94 131
-168 167 -53 26 -61 27 -240 29 -102 1 -196 -2 -210 -6z"/>
<path d="M934 895 c-79 -33 -137 -119 -136 -202 2 -92 59 -167 154 -203 43
-16 50 -17 93 -7 73 16 85 20 85 28 0 5 5 9 11 9 6 0 16 6 24 13 7 6 41 37 75
67 35 30 76 66 91 80 62 56 124 107 163 133 34 24 48 28 86 24 67 -8 95 -22
119 -60 32 -51 33 -107 5 -155 -53 -90 -168 -95 -255 -13 -38 36 -74 41 -82
10 -9 -35 104 -129 156 -129 9 0 18 -4 21 -9 15 -24 152 25 196 70 50 53 68
141 44 212 -18 51 -46 84 -99 117 -72 44 -208 28 -270 -33 -6 -7 -40 -37 -75
-67 -35 -30 -68 -59 -74 -65 -10 -9 -129 -111 -168 -143 -24 -20 -112 -24
-152 -7 -24 10 -41 29 -59 65 -22 43 -24 55 -15 92 28 128 169 153 279 51 32
-30 71 -28 75 3 4 24 -55 83 -111 112 -37 19 -142 24 -181 7z"/>
</g>
</svg>
